<svg width="20" height="20" viewBox="0 0 20 20" fill="currentColor" xmlns="http://www.w3.org/2000/svg">
  <g clip-path="url(#clip0_480_25596)">
    <path
      d="M10.0002 18.3334C10.9169 18.3334 11.6669 17.5834 11.6669 16.6667H8.33356C8.33356 17.5834 9.08356 18.3334 10.0002 18.3334ZM15.0002 13.3334V9.16671C15.0002 6.60837 13.6419 4.46671 11.2502 3.90004V3.33337C11.2502 2.64171 10.6919 2.08337 10.0002 2.08337C9.30856 2.08337 8.75023 2.64171 8.75023 3.33337V3.90004C6.36689 4.46671 5.00023 6.60004 5.00023 9.16671V13.3334L3.33356 15V15.8334H16.6669V15L15.0002 13.3334ZM13.3336 14.1667H6.66689V9.16671C6.66689 7.10004 7.92523 5.41671 10.0002 5.41671C12.0752 5.41671 13.3336 7.10004 13.3336 9.16671V14.1667ZM6.31689 3.40004L5.12523 2.20837C3.12523 3.73337 1.80856 6.08337 1.69189 8.75004H3.35856C3.48356 6.54171 4.61689 4.60837 6.31689 3.40004V3.40004ZM16.6419 8.75004H18.3086C18.1836 6.08337 16.8669 3.73337 14.8752 2.20837L13.6919 3.40004C15.3752 4.60837 16.5169 6.54171 16.6419 8.75004Z" />
  </g>
  <defs>
    <clipPath id="clip0_480_25596">
      <rect width="20" height="20" />
    </clipPath>
  </defs>
</svg>