<svg width="20" height="20" viewBox="0 0 20 20" fill="currentColor" xmlns="http://www.w3.org/2000/svg">
  <g clip-path="url(#clip0_480_26157)">
    <path
      d="M16.1915 10.8167C16.2249 10.55 16.2499 10.2834 16.2499 10C16.2499 9.71669 16.2249 9.45002 16.1915 9.18335L17.9499 7.80835C18.1082 7.68335 18.1499 7.45835 18.0499 7.27502L16.3832 4.39169C16.3082 4.25835 16.1665 4.18335 16.0165 4.18335C15.9665 4.18335 15.9165 4.19169 15.8749 4.20835L13.7999 5.04169C13.3665 4.70835 12.8999 4.43335 12.3915 4.22502L12.0749 2.01669C12.0499 1.81669 11.8749 1.66669 11.6665 1.66669H8.3332C8.12487 1.66669 7.94987 1.81669 7.92487 2.01669L7.6082 4.22502C7.09987 4.43335 6.6332 4.71669 6.19987 5.04169L4.12487 4.20835C4.07487 4.19169 4.02487 4.18335 3.97487 4.18335C3.8332 4.18335 3.69153 4.25835 3.61653 4.39169L1.94987 7.27502C1.84153 7.45835 1.89153 7.68335 2.04987 7.80835L3.8082 9.18335C3.77487 9.45002 3.74987 9.72502 3.74987 10C3.74987 10.275 3.77487 10.55 3.8082 10.8167L2.04987 12.1917C1.89153 12.3167 1.84987 12.5417 1.94987 12.725L3.61653 15.6084C3.69153 15.7417 3.8332 15.8167 3.9832 15.8167C4.0332 15.8167 4.0832 15.8084 4.12487 15.7917L6.19987 14.9584C6.6332 15.2917 7.09987 15.5667 7.6082 15.775L7.92487 17.9834C7.94987 18.1834 8.12487 18.3334 8.3332 18.3334H11.6665C11.8749 18.3334 12.0499 18.1834 12.0749 17.9834L12.3915 15.775C12.8999 15.5667 13.3665 15.2834 13.7999 14.9584L15.8749 15.7917C15.9249 15.8084 15.9749 15.8167 16.0249 15.8167C16.1665 15.8167 16.3082 15.7417 16.3832 15.6084L18.0499 12.725C18.1499 12.5417 18.1082 12.3167 17.9499 12.1917L16.1915 10.8167V10.8167ZM14.5415 9.39169C14.5749 9.65002 14.5832 9.82502 14.5832 10C14.5832 10.175 14.5665 10.3584 14.5415 10.6084L14.4249 11.55L15.1665 12.1334L16.0665 12.8334L15.4832 13.8417L14.4249 13.4167L13.5582 13.0667L12.8082 13.6334C12.4499 13.9 12.1082 14.1 11.7665 14.2417L10.8832 14.6L10.7499 15.5417L10.5832 16.6667H9.41653L9.2582 15.5417L9.12487 14.6L8.24153 14.2417C7.8832 14.0917 7.54987 13.9 7.21653 13.65L6.4582 13.0667L5.57487 13.425L4.51653 13.85L3.9332 12.8417L4.8332 12.1417L5.57487 11.5584L5.4582 10.6167C5.4332 10.3584 5.41653 10.1667 5.41653 10C5.41653 9.83335 5.4332 9.64169 5.4582 9.39169L5.57487 8.45002L4.8332 7.86669L3.9332 7.16669L4.51653 6.15835L5.57487 6.58335L6.44153 6.93335L7.19153 6.36669C7.54987 6.10002 7.89153 5.90002 8.2332 5.75835L9.11653 5.40002L9.24987 4.45835L9.41653 3.33335H10.5749L10.7332 4.45835L10.8665 5.40002L11.7499 5.75835C12.1082 5.90835 12.4415 6.10002 12.7749 6.35002L13.5332 6.93335L14.4165 6.57502L15.4749 6.15002L16.0582 7.15835L15.1665 7.86669L14.4249 8.45002L14.5415 9.39169ZM9.99987 6.66669C8.1582 6.66669 6.66653 8.15835 6.66653 10C6.66653 11.8417 8.1582 13.3334 9.99987 13.3334C11.8415 13.3334 13.3332 11.8417 13.3332 10C13.3332 8.15835 11.8415 6.66669 9.99987 6.66669ZM9.99987 11.6667C9.0832 11.6667 8.3332 10.9167 8.3332 10C8.3332 9.08335 9.0832 8.33335 9.99987 8.33335C10.9165 8.33335 11.6665 9.08335 11.6665 10C11.6665 10.9167 10.9165 11.6667 9.99987 11.6667Z" />
  </g>
  <defs>
    <clipPath id="clip0_480_26157">
      <rect width="20" height="20" />
    </clipPath>
  </defs>
</svg>