<svg width="20" height="20" viewBox="0 0 20 20" fill="currentColor" xmlns="http://www.w3.org/2000/svg">
  <g clip-path="url(#clip0_480_26940)">
    <path
      d="M9.16669 15H10.8334V13.3334H9.16669V15ZM10 1.66669C5.40002 1.66669 1.66669 5.40002 1.66669 10C1.66669 14.6 5.40002 18.3334 10 18.3334C14.6 18.3334 18.3334 14.6 18.3334 10C18.3334 5.40002 14.6 1.66669 10 1.66669ZM10 16.6667C6.32502 16.6667 3.33335 13.675 3.33335 10C3.33335 6.32502 6.32502 3.33335 10 3.33335C13.675 3.33335 16.6667 6.32502 16.6667 10C16.6667 13.675 13.675 16.6667 10 16.6667ZM10 5.00002C8.15835 5.00002 6.66669 6.49169 6.66669 8.33335H8.33335C8.33335 7.41669 9.08335 6.66669 10 6.66669C10.9167 6.66669 11.6667 7.41669 11.6667 8.33335C11.6667 10 9.16669 9.79169 9.16669 12.5H10.8334C10.8334 10.625 13.3334 10.4167 13.3334 8.33335C13.3334 6.49169 11.8417 5.00002 10 5.00002Z" />
  </g>
  <defs>
    <clipPath id="clip0_480_26940">
      <rect width="20" height="20" />
    </clipPath>
  </defs>
</svg>