<svg width="20" height="20" viewBox="0 0 20 20" fill="currentColor" xmlns="http://www.w3.org/2000/svg">
  <g clip-path="url(#clip0_914_27849)">
    <path
      d="M10 6.66665C10.9167 6.66665 11.6667 5.91665 11.6667 4.99998C11.6667 4.08331 10.9167 3.33331 10 3.33331C9.08334 3.33331 8.33334 4.08331 8.33334 4.99998C8.33334 5.91665 9.08334 6.66665 10 6.66665ZM10 8.33331C9.08334 8.33331 8.33334 9.08331 8.33334 9.99998C8.33334 10.9166 9.08334 11.6666 10 11.6666C10.9167 11.6666 11.6667 10.9166 11.6667 9.99998C11.6667 9.08331 10.9167 8.33331 10 8.33331ZM10 13.3333C9.08334 13.3333 8.33334 14.0833 8.33334 15C8.33334 15.9166 9.08334 16.6666 10 16.6666C10.9167 16.6666 11.6667 15.9166 11.6667 15C11.6667 14.0833 10.9167 13.3333 10 13.3333Z" />
  </g>
  <defs>
    <clipPath id="clip0_914_27849">
      <rect width="20" height="20" />
    </clipPath>
  </defs>
</svg>